<svg version="1.1" id="Layer_1" xmlns="http://www.w3.org/2000/svg" x="0" y="0" viewBox="0 0 623.6 182.7" xml:space="preserve"><style>.st0{fill:#3b1500}</style><path class="st0" d="M0 0v182.7h623.6V0H0zm615.2 174.3H8.4V8.4h606.8v165.9z"/><path class="st0" d="M122.2 117.6V64.5h8.5v44.7h22.6v8.4zM65.6 117.6V64.5h31.5v8.4H74v13.2h21.2v8.4H74v23.1zM197.2 118.1c-14.9 0-27-12.1-27-27s12.1-27 27-27 27 12.1 27 27c0 14.8-12.1 27-27 27zm0-45.6c-10.3 0-18.6 8.3-18.6 18.6 0 10.2 8.3 18.6 18.6 18.6s18.6-8.3 18.6-18.6-8.3-18.6-18.6-18.6zM329.4 117.6V64.5h31.5v8.4h-23.1v13.2H359v8.4h-21.2v14.7h23.1v8.4zM547.6 117.6l-14.4-20-14.4 20h-10.3l19.6-27.2-18.7-25.9h10.4l13.4 18.7 13.5-18.7h10.4l-18.7 25.9 19.6 27.2zM272.8 95.8L262 118.6l-23.8-54.1h8.6l15.4 35.9 6.4-13.5L258 64.5h8.6l6.2 13.3 6.2-13.3h8.6L277 86.9l6.3 13.5 15.6-35.9h8.5l-23.8 54.1zM418.9 117.6L398 89.8v27.8h-8.4V64.5h19.2c8.2 0 14.9 6.7 14.9 15 0 7.1-5.1 13.3-11.9 14.3l-.8.2 18.1 23.7h-10.2zM398 86h11.4c3.4-.4 5.9-3.1 5.9-6.5 0-3.6-2.9-6.6-6.5-6.6H398V86zM452.4 117.6V64.5h18.3c4.7 0 8.3 1.2 11.1 3.8 2.9 2.6 4.5 6.4 4.5 10.4 0 2-.5 4-1.5 5.9-1.3 2.3-2.9 3.3-2.9 3.3l-.7.4.7.4c1.7.9 3.4 2.6 4.6 4.6.2.3.4.6.5.9l.1.3c.3.6.5 1.1.7 1.6v.1c.2.5.4 1.1.5 1.6.2.6.3 1.2.3 1.7v.1c.1.6.1 1.2.1 1.7 0 4.9-2.2 9.5-6 12.5-3 2.5-6.7 3.6-11.8 3.6h-18.5zm8.5-8.4h9.1c3.9 0 6.3-.7 8-2.5 1.5-1.5 2.2-3.5 2.2-5.6 0-2-.8-4-2.3-5.5-1.7-1.7-4.1-2.5-8-2.5h-9.1v16.1zm0-24.3h8.6c3.5 0 5.4-.6 6.6-1.9 1.1-1.1 1.6-2.5 1.6-4.1 0-1.5-.6-2.9-1.6-4.1-1.2-1.4-3.1-1.9-6.6-1.9h-8.6v12z"/></svg>